<?xml version="1.0" standalone="no"?>
<!DOCTYPE svg PUBLIC "-//W3C//DTD SVG 20010904//EN"
 "http://www.w3.org/TR/2001/REC-SVG-20010904/DTD/svg10.dtd">
<svg version="1.0" xmlns="http://www.w3.org/2000/svg"
 width="260.000000pt" height="260.000000pt" viewBox="0 0 260.000000 260.000000"
 preserveAspectRatio="xMidYMid meet">
<metadata>
Created by potrace 1.11, written by Peter Selinger 2001-2013
</metadata>
<g transform="translate(0.000000,260.000000) scale(0.100000,-0.100000)"
fill="#000000" stroke="none">
<path d="M1025 2536 c-17 -7 -38 -25 -47 -38 -13 -20 -27 -26 -71 -31 -80 -8
-157 -67 -157 -120 0 -8 -21 -32 -47 -53 -88 -71 -153 -141 -154 -165 -2 -44
3 -74 17 -101 8 -15 14 -29 14 -31 0 -3 -31 -7 -69 -11 -38 -4 -80 -9 -93 -11
-13 -2 -52 -6 -88 -10 -113 -11 -171 -17 -188 -20 -9 -2 -27 -4 -39 -4 -21 -1
-21 -1 -17 -218 4 -232 4 -233 57 -233 15 0 28 -3 28 -7 2 -10 6 -114 14 -328
3 -93 8 -208 10 -255 2 -47 7 -175 10 -285 6 -176 10 -254 14 -276 1 -4 18
-10 38 -14 21 -5 43 -9 48 -11 6 -1 183 -46 395 -99 212 -53 392 -98 400 -100
8 -2 54 -13 102 -25 78 -19 142 -21 167 -5 4 2 18 6 32 9 13 2 134 32 269 66
135 34 252 63 260 65 64 14 436 108 439 112 6 4 7 27 16 273 4 102 8 223 10
270 2 47 7 166 10 265 7 177 12 309 14 331 1 6 19 14 41 18 l40 6 1 78 c0 42
2 141 4 220 2 78 1 142 -3 143 -22 1 -95 9 -147 15 -33 3 -76 8 -95 9 -34 3
-115 12 -175 20 -16 2 -33 4 -37 4 -4 1 8 16 26 35 19 18 42 48 51 66 31 60
-10 135 -92 169 -22 9 -34 22 -38 41 -8 37 -51 76 -105 95 -25 9 -79 38 -121
66 -92 60 -119 67 -166 39 l-35 -21 -99 21 c-126 26 -148 25 -192 -5 l-37 -24
-27 26 c-55 51 -127 66 -188 39z m85 -85 c0 -11 -38 -21 -56 -14 -26 10 -14
23 21 23 19 0 35 -4 35 -9z m-329 -234 c16 -19 16 -24 -4 -76 -11 -31 -21 -57
-22 -59 -1 -1 -10 0 -19 4 -24 9 -66 86 -66 122 0 27 4 31 33 34 42 4 59 -1
78 -25z m1229 -186 c0 -13 -9 -17 -40 -17 -22 0 -40 1 -40 3 0 2 10 19 23 38
l22 35 18 -21 c9 -12 17 -29 17 -38z"/>
</g>
</svg>
